{"title":"Tom.Clancys.Ghost.Recon.Alpha.2012.PL.SUBBED.HDTV.XviD-RLF","uid":7233687,"size":200695219,"categoryP":"video","categoryS":"tv_shows","magnet":"?xt=urn:btih:4ad1972399312caf009d8dccc13b82f1de761770&amp;dn=Tom.Clancys.Ghost.Recon.Alpha.2012.PL.SUBBED.HDTV.XviD-RLF&amp;tr=udp%3A%2F%2Ftracker.openbittorrent.com%3A80&amp;tr=udp%3A%2F%2Fopen.demonii.com%3A1337&amp;tr=udp%3A%2F%2Ftracker.coppersurfer.tk%3A6969&amp;tr=udp%3A%2F%2Fexodus.desync.com%3A6969","seeders":0,"leechers":0,"uploader":"rlf-rls","files":-1,"time":1335923378,"description":"Tom.Clancys.Ghost.Recon.Alpha.2012.PL.SUBBED.HDTV.XviD-RLF\n~~~~~~~~~~~~~~~~~~~~~~~~~~~~~~~~~~~~~~~~~~~~~~~~~~~~~~~~~~                                            \nGENERAL:\n\n\nComplete name                    : rlf-recon-ps.avi\nFormat                           : AVI\nFormat/Info                      : Audio Video Interleave\nFile size                        : 185 MiB\nDuration                         : 23 mn 52s\nOverall bit rate                 : 1 082 Kbps\nLanguage                         : English\nSubs                             : Polish Hardcoded \nEncoder                          : Ralf\n\nVideo:\n\n                     \nFormat                           : MPEG-4 Visual\nFormat profile                   : Advanced Simple@L5\nFormat settings, BVOP            : 2\nFormat settings, QPel            : No\nFormat settings, GMC             : No warppoints\nFormat settings, Matrix          : H.263\nMuxing mode                      : Packed bitstream\nCodec ID                         : XVID\nDuration                         : 23 mn 52s\nBit rate                         : 945 Kbps\nWidth                            : 688 pixels\nHeight                           : 288 pixels\nDisplay aspect ratio             : 2.35:1\nFrame rate                       : 25.000 fps\nColor space                      : YUV\nChroma subsampling               : 4:2:0\nBit depth                        : 8 bits\nScan type                        : Interlaced\nBits/(Pixel Frame)               : 0.191\nStream size                      : 161 MiB (87%)      \nStream size                      : Xvid 64\n\nAudio:\n\n\nFormat                           : MPEG Audio\nCodec ID/Hint                    : MP3\nDuration                         : 23 mn 52s\nBit rate mode                    : Constant\nBit rate                         : 128 Kbps\nChannel(s)                       : 2 channels\nSampling rate                    : 48.0 KHz\nStream size                      : 21.9 MiB (12%)\nAlignment                        : Split accross interleaves\nInterleave, duration             : 40 ms (1.00 video frame)\nInterleave, preload duration     : 500 ms\n                   \n\nMOVIE INFO:\n             \n\nOddzial duchow jest najlepiej wyszkolona jednostka na calej planecie. Rzuceni \ndaleko za linie wroga musza  odnalezc i wyeliminowac najwiekszych zbrodniarzy \nwojennych.\n\n\nTom ClancyÄºs Ghost Recon Alpha is the 25-minute prequel film to the video \ngame Tom ClancyÄºs Ghost Recon Future Soldier and follows the Ghosts as they \nare dropped deep behind enemy lines in order to eliminate one of the worldÄºs \nmost sought-after war criminals. \n                                          &lt;a href=&quot;\nhttp://www.imdb.com/title/tt2371253/&quot; rel=&quot;nofollow&quot; target=&quot;_NEW&quot;&gt;\nhttp://www.imdb.com/title/tt2371253/&lt;/a&gt; &lt;a href=&quot;\nhttp://www.gry-online.pl/S013.asp?ID=67645&quot; rel=&quot;nofollow&quot; target=&quot;_NEW&quot;&gt;\nhttp://www.gry-online.pl/S013.asp?ID=67645&lt;/a&gt;\n                                               \nSOURCE:\n\nPSiG's 720p.HDTV.x264 (BiG THX)\n\nSCREENS:\n &lt;a href=&quot;\nhttp://image.bayimg.com/paokeaadf.jpg&quot; rel=&quot;nofollow&quot; target=&quot;_NEW&quot;&gt;\nhttp://image.bayimg.com/paokeaadf.jpg&lt;/a&gt; &lt;a href=&quot;\nhttp://image.bayimg.com/paokfaadf.jpg&quot; rel=&quot;nofollow&quot; target=&quot;_NEW&quot;&gt;\nhttp://image.bayimg.com/paokfaadf.jpg&lt;/a&gt; &lt;a href=&quot;\nhttp://image.bayimg.com/paokgaadf.jpg&quot; rel=&quot;nofollow&quot; target=&quot;_NEW&quot;&gt;\nhttp://image.bayimg.com/paokgaadf.jpg&lt;/a&gt;\n\n","torrent":{"xt":"urn:btih:4ad1972399312caf009d8dccc13b82f1de761770","amp;dn":"Tom.Clancys.Ghost.Recon.Alpha.2012.PL.SUBBED.HDTV.XviD-RLF","amp;tr":["udp%3A%2F%2Ftracker.openbittorrent.com%3A80","udp%3A%2F%2Fopen.demonii.com%3A1337","udp%3A%2F%2Ftracker.coppersurfer.tk%3A6969","udp%3A%2F%2Fexodus.desync.com%3A6969"],"infoHash":"4ad1972399312caf009d8dccc13b82f1de761770","infoHashBuffer":{"type":"Buffer","data":[74,209,151,35,153,49,44,175,0,157,141,204,193,59,130,241,222,118,23,112]},"announce":[],"urlList":[]}}